<mxfile host="app.diagrams.net" modified="2021-07-24T22:13:43.212Z" agent="5.0 (Windows NT 10.0; Win64; x64) AppleWebKit/537.36 (KHTML, like Gecko) Chrome/91.0.4472.124 Safari/537.36" etag="KiVEGseDeesPx8l4fJXb" version="14.8.5" type="github">
  <diagram name="Page-1" id="74e2e168-ea6b-b213-b513-2b3c1d86103e">
    <mxGraphModel dx="1323" dy="626" grid="1" gridSize="10" guides="1" tooltips="1" connect="1" arrows="1" fold="1" page="1" pageScale="1" pageWidth="1100" pageHeight="850" background="none" math="0" shadow="0">
      <root>
        <mxCell id="0" />
        <mxCell id="1" parent="0" />
        <mxCell id="8epjC9yR5Z2ETdlphppA-55" style="edgeStyle=orthogonalEdgeStyle;rounded=0;orthogonalLoop=1;jettySize=auto;html=1;entryX=0;entryY=0.5;entryDx=0;entryDy=0;" edge="1" parent="1" source="8epjC9yR5Z2ETdlphppA-1" target="8epjC9yR5Z2ETdlphppA-2">
          <mxGeometry relative="1" as="geometry" />
        </mxCell>
        <mxCell id="8epjC9yR5Z2ETdlphppA-1" value="Start" style="ellipse;whiteSpace=wrap;html=1;fillColor=#f5f5f5;strokeColor=#666666;fontColor=#333333;" vertex="1" parent="1">
          <mxGeometry x="100" y="45" width="120" height="80" as="geometry" />
        </mxCell>
        <mxCell id="8epjC9yR5Z2ETdlphppA-24" value="" style="edgeStyle=orthogonalEdgeStyle;rounded=0;orthogonalLoop=1;jettySize=auto;html=1;" edge="1" parent="1" source="8epjC9yR5Z2ETdlphppA-2" target="8epjC9yR5Z2ETdlphppA-3">
          <mxGeometry relative="1" as="geometry" />
        </mxCell>
        <mxCell id="8epjC9yR5Z2ETdlphppA-2" value="Employee waiting in Queue to order" style="rounded=1;whiteSpace=wrap;html=1;fillColor=#dae8fc;strokeColor=#6c8ebf;" vertex="1" parent="1">
          <mxGeometry x="400" y="40" width="220" height="90" as="geometry" />
        </mxCell>
        <mxCell id="8epjC9yR5Z2ETdlphppA-36" style="edgeStyle=orthogonalEdgeStyle;rounded=0;orthogonalLoop=1;jettySize=auto;html=1;entryX=0;entryY=0.5;entryDx=0;entryDy=0;" edge="1" parent="1" source="8epjC9yR5Z2ETdlphppA-3" target="8epjC9yR5Z2ETdlphppA-9">
          <mxGeometry relative="1" as="geometry" />
        </mxCell>
        <mxCell id="8epjC9yR5Z2ETdlphppA-54" style="edgeStyle=orthogonalEdgeStyle;rounded=0;orthogonalLoop=1;jettySize=auto;html=1;entryX=1;entryY=0.5;entryDx=0;entryDy=0;" edge="1" parent="1" source="8epjC9yR5Z2ETdlphppA-3" target="8epjC9yR5Z2ETdlphppA-8">
          <mxGeometry relative="1" as="geometry" />
        </mxCell>
        <mxCell id="8epjC9yR5Z2ETdlphppA-3" value="Is dish available" style="rhombus;whiteSpace=wrap;html=1;fillColor=#d5e8d4;strokeColor=#82b366;" vertex="1" parent="1">
          <mxGeometry x="450" y="170" width="80" height="80" as="geometry" />
        </mxCell>
        <mxCell id="8epjC9yR5Z2ETdlphppA-30" style="edgeStyle=orthogonalEdgeStyle;rounded=0;orthogonalLoop=1;jettySize=auto;html=1;entryX=0.5;entryY=0;entryDx=0;entryDy=0;" edge="1" parent="1" source="8epjC9yR5Z2ETdlphppA-8" target="8epjC9yR5Z2ETdlphppA-20">
          <mxGeometry relative="1" as="geometry" />
        </mxCell>
        <mxCell id="8epjC9yR5Z2ETdlphppA-8" value="Order the dish, pay for it and look for a table" style="rounded=1;whiteSpace=wrap;html=1;fillColor=#dae8fc;strokeColor=#6c8ebf;" vertex="1" parent="1">
          <mxGeometry x="100" y="180" width="120" height="60" as="geometry" />
        </mxCell>
        <mxCell id="8epjC9yR5Z2ETdlphppA-37" style="edgeStyle=orthogonalEdgeStyle;rounded=0;orthogonalLoop=1;jettySize=auto;html=1;entryX=0.5;entryY=0;entryDx=0;entryDy=0;" edge="1" parent="1" source="8epjC9yR5Z2ETdlphppA-9" target="8epjC9yR5Z2ETdlphppA-19">
          <mxGeometry relative="1" as="geometry" />
        </mxCell>
        <mxCell id="8epjC9yR5Z2ETdlphppA-9" value="Order Another Dish" style="rounded=1;whiteSpace=wrap;html=1;fillColor=#dae8fc;strokeColor=#6c8ebf;" vertex="1" parent="1">
          <mxGeometry x="630" y="180" width="120" height="60" as="geometry" />
        </mxCell>
        <mxCell id="8epjC9yR5Z2ETdlphppA-62" style="edgeStyle=orthogonalEdgeStyle;rounded=0;orthogonalLoop=1;jettySize=auto;html=1;entryX=0.5;entryY=0;entryDx=0;entryDy=0;" edge="1" parent="1" source="8epjC9yR5Z2ETdlphppA-10" target="8epjC9yR5Z2ETdlphppA-21">
          <mxGeometry relative="1" as="geometry" />
        </mxCell>
        <mxCell id="8epjC9yR5Z2ETdlphppA-10" value="Head Back to work" style="rounded=1;whiteSpace=wrap;html=1;fillColor=#f8cecc;strokeColor=#b85450;" vertex="1" parent="1">
          <mxGeometry x="390" y="490" width="120" height="60" as="geometry" />
        </mxCell>
        <mxCell id="8epjC9yR5Z2ETdlphppA-33" style="edgeStyle=orthogonalEdgeStyle;rounded=0;orthogonalLoop=1;jettySize=auto;html=1;exitX=0.5;exitY=1;exitDx=0;exitDy=0;entryX=0;entryY=0.5;entryDx=0;entryDy=0;" edge="1" parent="1" source="8epjC9yR5Z2ETdlphppA-11" target="8epjC9yR5Z2ETdlphppA-10">
          <mxGeometry relative="1" as="geometry" />
        </mxCell>
        <mxCell id="8epjC9yR5Z2ETdlphppA-11" value="Eat the meal&amp;nbsp;" style="rounded=1;whiteSpace=wrap;html=1;fillColor=#dae8fc;strokeColor=#6c8ebf;" vertex="1" parent="1">
          <mxGeometry x="110" y="430" width="120" height="60" as="geometry" />
        </mxCell>
        <mxCell id="8epjC9yR5Z2ETdlphppA-47" style="edgeStyle=orthogonalEdgeStyle;rounded=0;orthogonalLoop=1;jettySize=auto;html=1;exitX=0.5;exitY=1;exitDx=0;exitDy=0;entryX=1;entryY=0.5;entryDx=0;entryDy=0;" edge="1" parent="1" source="8epjC9yR5Z2ETdlphppA-12" target="8epjC9yR5Z2ETdlphppA-11">
          <mxGeometry relative="1" as="geometry" />
        </mxCell>
        <mxCell id="8epjC9yR5Z2ETdlphppA-12" value="Wait for the table" style="rounded=1;whiteSpace=wrap;html=1;fillColor=#dae8fc;strokeColor=#6c8ebf;" vertex="1" parent="1">
          <mxGeometry x="270" y="300" width="120" height="60" as="geometry" />
        </mxCell>
        <mxCell id="8epjC9yR5Z2ETdlphppA-35" style="edgeStyle=orthogonalEdgeStyle;rounded=0;orthogonalLoop=1;jettySize=auto;html=1;exitX=0.5;exitY=1;exitDx=0;exitDy=0;" edge="1" parent="1" source="8epjC9yR5Z2ETdlphppA-19">
          <mxGeometry relative="1" as="geometry">
            <mxPoint x="400" y="210" as="targetPoint" />
          </mxGeometry>
        </mxCell>
        <mxCell id="8epjC9yR5Z2ETdlphppA-57" style="edgeStyle=orthogonalEdgeStyle;rounded=0;orthogonalLoop=1;jettySize=auto;html=1;entryX=0.5;entryY=0;entryDx=0;entryDy=0;" edge="1" parent="1" source="8epjC9yR5Z2ETdlphppA-19" target="8epjC9yR5Z2ETdlphppA-56">
          <mxGeometry relative="1" as="geometry" />
        </mxCell>
        <mxCell id="8epjC9yR5Z2ETdlphppA-19" value="Is dish available" style="rhombus;whiteSpace=wrap;html=1;fillColor=#d5e8d4;strokeColor=#82b366;" vertex="1" parent="1">
          <mxGeometry x="650" y="300" width="80" height="90" as="geometry" />
        </mxCell>
        <mxCell id="8epjC9yR5Z2ETdlphppA-31" style="edgeStyle=orthogonalEdgeStyle;rounded=0;orthogonalLoop=1;jettySize=auto;html=1;entryX=0;entryY=0.5;entryDx=0;entryDy=0;" edge="1" parent="1" source="8epjC9yR5Z2ETdlphppA-20" target="8epjC9yR5Z2ETdlphppA-12">
          <mxGeometry relative="1" as="geometry" />
        </mxCell>
        <mxCell id="8epjC9yR5Z2ETdlphppA-32" style="edgeStyle=orthogonalEdgeStyle;rounded=0;orthogonalLoop=1;jettySize=auto;html=1;exitX=0.5;exitY=1;exitDx=0;exitDy=0;entryX=0.425;entryY=0.017;entryDx=0;entryDy=0;entryPerimeter=0;" edge="1" parent="1" source="8epjC9yR5Z2ETdlphppA-20" target="8epjC9yR5Z2ETdlphppA-11">
          <mxGeometry relative="1" as="geometry" />
        </mxCell>
        <mxCell id="8epjC9yR5Z2ETdlphppA-20" value="Is table available" style="rhombus;whiteSpace=wrap;html=1;fillColor=#d5e8d4;strokeColor=#82b366;" vertex="1" parent="1">
          <mxGeometry x="110" y="280" width="100" height="100" as="geometry" />
        </mxCell>
        <mxCell id="8epjC9yR5Z2ETdlphppA-21" value="Stop" style="ellipse;whiteSpace=wrap;html=1;fillColor=#f5f5f5;strokeColor=#666666;fontColor=#333333;" vertex="1" parent="1">
          <mxGeometry x="390" y="610" width="120" height="80" as="geometry" />
        </mxCell>
        <mxCell id="8epjC9yR5Z2ETdlphppA-29" value="YES" style="text;html=1;align=center;verticalAlign=middle;resizable=0;points=[];autosize=1;strokeColor=none;" vertex="1" parent="1">
          <mxGeometry x="410" y="190" width="40" height="20" as="geometry" />
        </mxCell>
        <mxCell id="8epjC9yR5Z2ETdlphppA-39" value="NO" style="text;html=1;align=center;verticalAlign=middle;resizable=0;points=[];autosize=1;strokeColor=none;" vertex="1" parent="1">
          <mxGeometry x="555" y="190" width="30" height="20" as="geometry" />
        </mxCell>
        <mxCell id="8epjC9yR5Z2ETdlphppA-43" value="NO" style="text;html=1;align=center;verticalAlign=middle;resizable=0;points=[];autosize=1;strokeColor=none;" vertex="1" parent="1">
          <mxGeometry x="740" y="320" width="30" height="20" as="geometry" />
        </mxCell>
        <mxCell id="8epjC9yR5Z2ETdlphppA-44" value="YES" style="text;html=1;align=center;verticalAlign=middle;resizable=0;points=[];autosize=1;strokeColor=none;" vertex="1" parent="1">
          <mxGeometry x="545" y="380" width="40" height="20" as="geometry" />
        </mxCell>
        <mxCell id="8epjC9yR5Z2ETdlphppA-45" value="YES" style="text;html=1;align=center;verticalAlign=middle;resizable=0;points=[];autosize=1;strokeColor=none;" vertex="1" parent="1">
          <mxGeometry x="160" y="370" width="40" height="20" as="geometry" />
        </mxCell>
        <mxCell id="8epjC9yR5Z2ETdlphppA-46" value="NO" style="text;html=1;align=center;verticalAlign=middle;resizable=0;points=[];autosize=1;strokeColor=none;" vertex="1" parent="1">
          <mxGeometry x="220" y="290" width="30" height="20" as="geometry" />
        </mxCell>
        <mxCell id="8epjC9yR5Z2ETdlphppA-58" style="edgeStyle=orthogonalEdgeStyle;rounded=0;orthogonalLoop=1;jettySize=auto;html=1;entryX=1;entryY=0.5;entryDx=0;entryDy=0;" edge="1" parent="1" source="8epjC9yR5Z2ETdlphppA-56" target="8epjC9yR5Z2ETdlphppA-10">
          <mxGeometry relative="1" as="geometry" />
        </mxCell>
        <mxCell id="8epjC9yR5Z2ETdlphppA-60" style="edgeStyle=orthogonalEdgeStyle;rounded=0;orthogonalLoop=1;jettySize=auto;html=1;entryX=1;entryY=0.5;entryDx=0;entryDy=0;" edge="1" parent="1" source="8epjC9yR5Z2ETdlphppA-56" target="8epjC9yR5Z2ETdlphppA-9">
          <mxGeometry relative="1" as="geometry">
            <Array as="points">
              <mxPoint x="890" y="520" />
              <mxPoint x="890" y="210" />
            </Array>
          </mxGeometry>
        </mxCell>
        <mxCell id="8epjC9yR5Z2ETdlphppA-56" value="Want to order another dish" style="rhombus;whiteSpace=wrap;html=1;fillColor=#d5e8d4;strokeColor=#82b366;" vertex="1" parent="1">
          <mxGeometry x="750" y="465" width="110" height="110" as="geometry" />
        </mxCell>
        <mxCell id="8epjC9yR5Z2ETdlphppA-61" value="YES" style="text;html=1;align=center;verticalAlign=middle;resizable=0;points=[];autosize=1;strokeColor=none;" vertex="1" parent="1">
          <mxGeometry x="890" y="340" width="40" height="20" as="geometry" />
        </mxCell>
        <mxCell id="8epjC9yR5Z2ETdlphppA-63" value="NO" style="text;html=1;align=center;verticalAlign=middle;resizable=0;points=[];autosize=1;strokeColor=none;" vertex="1" parent="1">
          <mxGeometry x="720" y="500" width="30" height="20" as="geometry" />
        </mxCell>
      </root>
    </mxGraphModel>
  </diagram>
</mxfile>
